# Blender v2.79 (sub 0) OBJ File: 'platform.blend'
# www.blender.org
mtllib platform.mtl
o Cube
v 1.000000 -0.147306 -2.487652
v 1.000000 -0.147306 2.487652
v -1.000000 -0.147306 2.487652
v -1.000000 -0.147306 -2.487653
v 1.000000 0.147306 -2.487651
v 0.999999 0.147306 2.487654
v -1.000000 0.147306 2.487651
v -1.000000 0.147306 -2.487652
vt 0.000000 0.000000
vt 1.000000 0.000000
vt 1.000000 1.000000
vt 0.000000 1.000000
vt 1.000000 0.000000
vt 1.000000 1.000000
vt 0.000000 1.000000
vt 0.000000 0.000000
vt 1.000000 0.000000
vt 1.000000 1.000000
vt 0.000000 1.000000
vt 0.000000 0.000000
vt 1.000000 0.000000
vt 1.000000 1.000000
vt 0.000000 0.000000
vt 1.000000 0.000000
vt 1.000000 1.000000
vt 0.000000 1.000000
vt 1.000000 0.000000
vt 0.000000 1.000000
vn 0.0000 -1.0000 0.0000
vn 1.0000 0.0000 0.0000
vn -0.0000 -0.0000 1.0000
vn -1.0000 -0.0000 -0.0000
vn 0.0000 0.0000 -1.0000
vn 0.0000 1.0000 -0.0000
usemtl Material
s off
f 1/1/1 2/2/1 3/3/1 4/4/1
f 1/1/2 5/5/2 6/6/2 2/7/2
f 2/8/3 6/9/3 7/10/3 3/11/3
f 3/12/4 7/13/4 8/14/4 4/4/4
f 5/15/5 1/16/5 4/17/5 8/18/5
usemtl Material.001
f 5/15/6 8/19/6 7/10/6 6/20/6
